<svg xmlns="http://www.w3.org/2000/svg" width="351" height="100" fill="none" viewBox="0 0 351 100"><g clip-path="url(#a)"><path fill="url(#b)" d="M100.66 74.11s32.99-60.48 70.17-60.48c17.86 0 47.84 12.09 72.33 12.09 24.49 0 53.22 21.23 80.62 35.51C340.89 70.15 351 74.35 351 74.35l-250.34-.24Z"/><path fill="url(#c)" d="M109.21 23.86c16.86 0 29.21-24.08 76.41-23.38 41.75.62 44.95 24.46 69.12 40.16 8.48 5.51 17.37-1.83 32.6 3.05 11.83 3.79 14.02 9.66 26.11 12.76 9.14 2.34 18.69 11.99 26.67 13.09 9.7 1.34 10.89 4.8 10.89 4.8s-239.52-4.81-265.35-4.81c-35.27 0-34.28-14.16-34.28-14.16s26.72-31.51 57.85-31.51h-.02Z"/><path fill="url(#d)" d="M246.17 74.15 0 75.27s19.69-5.74 21.51-8.53c3.5-5.41 7.96-6.59 7.96-6.59S28.9 53.59 35 48.91c4.42-3.39 10.92-1.8 10.92-1.8s2.98-8.76 11.96-9.03c6.31-.19 9.79 1.88 13.32 5.18.98.91 1.96 1.92 3.01 3 0 0 .01.01.02.01 1.53 1.58 3.2 3.31 5.19 5.12.18-.16.36-.3.55-.44a9.711 9.711 0 0 1 5.88-1.96c6 0 11.25 3.78 16.47 7.93.36.28.7.56 1.03.83 2.47 1.98 4.96 4 7.53 5.69.04.03.07.05.11.07 1.48.97 3 1.83 4.56 2.51 2.29 1 4.68 1.61 7.21 1.61 15.8 0 52.66-18.9 82.6-18.9 29.94 0 40.81 25.41 40.81 25.41v.01Z"/><path fill="url(#e)" d="M142.56 74.07H25.75s.46-1.26 2.77-2.56c1.54-.87 2.87-1.18 4.07-1.18 3.87 0 7.01-3.06 7.01-6.82 0-.98-.21-1.91-.6-2.75.79-.11 1.57-.02 2.23.36 1.02.58 1.91 1.78 3.11 1.32.53-.21.92-.7 1.37-1.06 1.33-1.07 3.4-.98 4.23.19.29-2.96.49-13.85 10.3-17.45 6.88-2.53 11.65-.18 13.98 2.13 0 0 .01.01.02.01 1.53 1.58 3.2 3.31 5.19 5.12 1.98 1.68 7.03 5.95 9.97 5.62.92-1.7 4.99-1.05 6.87-1.08 1.89-.03 3.28.66 5 .9.34.05.69.08 1.05.09.36.28.7.56 1.03.83 2.54 2.07 4.62 3.87 7.53 5.69.04.03.07.05.11.07 1.31.82 2.79 1.65 4.56 2.51 6.28 3.05 26.99 8.09 26.99 8.09l.02-.03Z"/><path fill="url(#f)" d="M0 75.27s4.37 2.67 18.85 2.67c10.69 0 27.71 8.07 61.67 8.03 28.34-.03 66.41 13.68 93.62 12.89 45.6-1.33 36.79-11.54 69.01-11.54 32.22 0 27.23-12.87 27.23-12.87L0 75.27Z"/><path fill="url(#g)" d="M351 74.35c-3.04 0-330.23.92-330.23.92s28.91-10.7 60.98-11.77c32.07-1.07 84.98 2.67 84.98 2.67s50.48-3.21 66.29-5.88c15.81-2.67 23.99-4.34 29.93-4.34 5.94 0 24.33 11.89 28.38 11.89 4.05 0 17.03-1.43 23.51-1.19 2.73.1 8.67 3 15.68 4.76 9.63 2.41 20.47 2.94 20.47 2.94h.01Z"/><path fill="#5F91CB" d="M351 74.35s0 2.28-24.63 3.28c-126.88 5.17 16.66 6.35-34.03 8.99C205.95 91.13 3.24 75.53 0 75.27l351-.92Z"/><path fill="url(#h)" d="M351 74.35s0 2.28-24.63 3.28c-126.88 5.17 16.64 6-34.03 8.99C205.43 91.76 0 75.27 0 75.27l351-.92Z"/><path fill="url(#i)" d="M130.554 37.636s1.32-4.218 2.356-8.419c.479-1.95 5.98-1.774 5.98-1.774h36.631c2.835 0 4.934 2.542 4.323 5.225l-3.916 17.172-45.383-12.204h.009Z"/><path fill="url(#j)" d="M221.728 46.725a1.912 1.912 0 0 0 .337 2.692l-22.253 29.236c-1.382 1.818-4.013 2.153-5.883.741l-24.148-18.25c-1.87-1.403-2.251-4.015-.869-5.832l22.262-29.245c.824.582 1.993.397 2.631-.45.638-.848.505-2.004-.274-2.64l5.74-7.553c1.382-1.818 4.013-2.153 5.882-.741l24.149 18.25c1.869 1.402 2.25 4.014.868 5.832l-5.731 7.545a1.954 1.954 0 0 0-2.702.424l-.009-.009Zm-22.74-18.347a.89.89 0 0 0-1.249.16.887.887 0 0 0 .186 1.244.89.89 0 0 0 1.249-.16.889.889 0 0 0-.186-1.244Zm3.074 2.33a.89.89 0 0 0-1.249.16.887.887 0 0 0 .186 1.243.89.89 0 0 0 1.249-.158.889.889 0 0 0-.186-1.245Zm3.074 2.33a.89.89 0 0 0-1.249.159.887.887 0 0 0 .186 1.244.89.89 0 0 0 1.249-.159.871.871 0 0 0-.186-1.244Zm3.074 2.33a.89.89 0 0 0-1.25.158.888.888 0 0 0 .187 1.245.89.89 0 0 0 1.249-.159.871.871 0 0 0-.186-1.244Zm3.074 2.33a.89.89 0 0 0-1.25.158.889.889 0 0 0 .186 1.244.89.89 0 0 0 1.25-.158.88.88 0 0 0-.186-1.245Zm3.26 2.462a.89.89 0 0 0-1.25.158.889.889 0 0 0 .186 1.245.89.89 0 0 0 1.25-.16.88.88 0 0 0-.186-1.243Zm3.073 2.33a.89.89 0 0 0-1.249.158.889.889 0 0 0 .186 1.244.89.89 0 0 0 1.25-.159.88.88 0 0 0-.187-1.244Zm3.074 2.329a.89.89 0 0 0-1.249.159.889.889 0 0 0 .186 1.244.89.89 0 0 0 1.249-.159.878.878 0 0 0-.186-1.244Z"/><path fill="#F99595" d="m193.885 25.484 3.915 2.983a.888.888 0 0 1 1.188-.097c.372.282.478.794.23 1.174l1.648 1.253a.89.89 0 0 1 1.196-.106.898.898 0 0 1 .23 1.191l1.639 1.244a.89.89 0 0 1 1.204-.114.88.88 0 0 1 .222 1.2l1.639 1.244a.885.885 0 0 1 1.213-.123.88.88 0 0 1 .213 1.209l1.639 1.244a.889.889 0 0 1 1.222-.133c.39.283.488.83.204 1.218l1.825 1.386a.892.892 0 0 1 1.231-.142.877.877 0 0 1 .204 1.227l1.639 1.244a.886.886 0 0 1 1.24-.15.878.878 0 0 1 .195 1.236l1.639 1.244a.89.89 0 0 1 1.249-.159.872.872 0 0 1 .186 1.245l.859.652c.647-.829 1.843-.997 2.676-.388l5.731-7.545c1.382-1.818 1.001-4.43-.868-5.833l-24.149-18.25c-1.869-1.402-4.5-1.076-5.882.742l-5.74 7.554c.744.609.894 1.685.363 2.515v.035Z"/><path fill="#727FA4" d="m227.811 35.748-24.683-18.779-2.005 2.616 24.683 18.779 2.005-2.616Z"/><path fill="#9CBADC" d="m212.547 30.558-12.532-9.534-2.006 2.616 12.532 9.534 2.006-2.616Z"/><path fill="url(#k)" d="m193.77 79.27-23.91-18.072c-1.869-1.404-2.259-4.016-.877-5.834l20.969-25.953c.824.582 3.233-2.939 3.862-3.786s.496-2.003-.283-2.638l5.722-7.563c1.373-1.818 4.013-2.153 5.883-.759l8.433 6.372-19.799 58.225v.009Zm5.244-50.891a.897.897 0 0 0-1.249.159.89.89 0 0 0 .186 1.244c.399.3.957.22 1.249-.16.293-.379.213-.943-.186-1.243Zm3.083 2.32a.897.897 0 0 0-1.249.16.89.89 0 0 0 .186 1.244c.399.3.957.22 1.249-.16a.89.89 0 0 0-.186-1.244Zm3.083 2.321a.897.897 0 0 0-1.249.16c-.293.379-.213.944.186 1.243.398.3.957.221 1.249-.158a.879.879 0 0 0-.186-1.245Z" opacity=".31"/><path fill="url(#l)" d="M204.524 35.412a1.91 1.91 0 0 0 1.17 2.444L193.867 72.6c-.726 2.162-3.127 3.3-5.342 2.56l-28.702-9.7c-2.214-.74-3.41-3.097-2.675-5.259l11.826-34.76c.966.291 2.02-.256 2.348-1.253.328-.997-.16-2.056-1.099-2.418l3.048-8.975c.726-2.162 3.127-3.3 5.342-2.559l28.702 9.698c2.214.742 3.41 3.098 2.675 5.26l-3.047 8.957a1.947 1.947 0 0 0-2.428 1.253l.009.009Zm-27.4-10.246a.895.895 0 0 0-1.134.548c-.159.459.098.962.576 1.13a.883.883 0 0 0 1.134-.548c.16-.459-.097-.962-.576-1.13Zm3.659 1.236a.894.894 0 0 0-1.134.547c-.159.459.097.962.576 1.13a.884.884 0 0 0 1.134-.547c.159-.46-.098-.962-.576-1.13Zm3.659 1.235a.894.894 0 0 0-1.134.547c-.16.46.097.962.575 1.13a.883.883 0 1 0 .559-1.677Zm3.658 1.236a.895.895 0 0 0-1.134.547c-.159.459.098.962.576 1.13a.883.883 0 1 0 .558-1.677Zm3.659 1.235a.894.894 0 0 0-1.134.547c-.16.46.097.962.576 1.13a.884.884 0 0 0 1.134-.547.89.89 0 0 0-.576-1.13Zm3.871 1.315a.895.895 0 0 0-1.134.547c-.159.46.098.962.576 1.13a.884.884 0 0 0 1.134-.547.89.89 0 0 0-.576-1.13Zm3.659 1.236a.894.894 0 0 0-1.134.547c-.16.459.097.962.576 1.13a.884.884 0 0 0 1.134-.548.89.89 0 0 0-.576-1.13Zm3.658 1.235a.895.895 0 0 0-1.134.547c-.159.46.098.962.576 1.13a.883.883 0 1 0 .558-1.677Z"/><path fill="#FB8989" d="m171.375 24.037 4.66 1.588a.89.89 0 0 1 1.098-.467c.443.15.7.6.594 1.04l1.958.672a.893.893 0 0 1 1.107-.477c.452.15.709.609.593 1.059l1.958.67a.885.885 0 0 1 1.107-.485.892.892 0 0 1 .594 1.068l1.958.67a.888.888 0 0 1 1.116-.493.873.873 0 0 1 .585 1.076l1.949.662a.897.897 0 0 1 1.116-.512c.46.15.717.636.584 1.095l2.171.74a.892.892 0 0 1 1.125-.52c.469.15.726.644.576 1.103l1.949.662a.886.886 0 0 1 1.125-.53.88.88 0 0 1 .575 1.112l1.949.662a.895.895 0 0 1 1.134-.547c.479.15.736.653.576 1.13l1.019.344a1.952 1.952 0 0 1 2.418-1.209l3.048-8.957c.726-2.162-.461-4.518-2.676-5.26l-28.702-9.698c-2.214-.741-4.615.397-5.342 2.56l-3.047 8.974c.895.344 1.382 1.315 1.143 2.268h-.018Z"/><path fill="#727FA4" d="m206.824 23.08-29.379-10.036-1.072 3.113 29.379 10.037 1.072-3.113Z"/><path fill="#9CBADC" d="m190.693 22.97-14.916-5.095-1.072 3.113 14.916 5.096 1.072-3.114Z"/><path fill="url(#m)" d="m188.065 75-28.242-9.549c-2.214-.741-3.41-3.097-2.675-5.26l11.826-34.76c.966.291 2.02-.256 2.348-1.253.328-.997-.16-2.056-1.099-2.418l3.048-8.975c.726-2.162 3.127-3.3 5.342-2.559l9.213 3.115.23 61.65.009.008Zm-10.932-49.834a.895.895 0 0 0-1.134.548c-.159.459.098.962.576 1.13a.884.884 0 0 0 1.134-.548c.159-.459-.098-.962-.576-1.13Zm3.659 1.236a.894.894 0 0 0-1.134.547c-.16.459.097.962.576 1.13a.884.884 0 0 0 1.134-.547c.159-.46-.098-.962-.576-1.13Zm3.658 1.235a.895.895 0 0 0-1.134.547c-.159.46.098.962.576 1.13a.883.883 0 1 0 .558-1.677Z" opacity=".31"/><path fill="url(#n)" d="M183.91 31.238c0 1.076.859 1.932 1.905 1.932l.124 36.685c.009 2.276-1.878 4.138-4.217 4.147l-30.314.097c-2.339.01-4.235-1.835-4.244-4.112l-.124-36.702c1.01-.035 1.825-.891 1.816-1.941-.009-1.05-.815-1.898-1.825-1.933l-.035-9.469c-.009-2.277 1.878-4.139 4.217-4.147l30.314-.098c2.339-.008 4.235 1.836 4.243 4.113l.036 9.46a1.958 1.958 0 0 0-1.896 1.968Zm-29.251-.838a.889.889 0 0 0-.895.882c0 .485.407.882.912.882a.883.883 0 0 0 .895-.882c0-.485-.407-.883-.912-.883Zm3.862-.01a.889.889 0 0 0-.895.883c0 .486.408.883.913.883a.882.882 0 0 0 .894-.883c0-.485-.407-.882-.912-.882Zm3.862-.008a.888.888 0 0 0-.894.882c0 .486.407.883.912.883a.883.883 0 0 0 .895-.883.888.888 0 0 0-.913-.882Zm3.863-.009a.889.889 0 0 0-.895.882c0 .486.408.883.913.883a.883.883 0 0 0 .894-.883.887.887 0 0 0-.912-.882Zm3.862-.009a.889.889 0 0 0-.895.883c0 .485.408.882.913.882a.883.883 0 0 0 .895-.882.893.893 0 0 0-.913-.883Zm4.093-.009a.889.889 0 0 0-.895.883c0 .485.408.882.913.882a.882.882 0 0 0 .894-.882.892.892 0 0 0-.912-.883Zm3.862-.009a.888.888 0 0 0-.894.883c0 .485.407.882.912.882a.883.883 0 0 0 .895-.882.893.893 0 0 0-.913-.883Zm3.863-.008a.889.889 0 0 0-.895.882c0 .486.407.883.912.883a.883.883 0 0 0 .895-.883.892.892 0 0 0-.912-.882Z"/><path fill="#FA6B6B" d="M148.847 31.194h4.926a.891.891 0 0 1 .886-.794c.46 0 .859.344.903.794h2.073a.88.88 0 0 1 .886-.803c.469 0 .868.344.904.803h2.064a.89.89 0 0 1 .894-.821.88.88 0 0 1 .904.82h2.064a.886.886 0 0 1 .895-.829.886.886 0 0 1 .903.83h2.064a.889.889 0 0 1 .895-.848.879.879 0 0 1 .904.848h2.294a.89.89 0 0 1 .895-.856.879.879 0 0 1 .903.856h2.065c0-.477.398-.865.894-.865a.876.876 0 0 1 .904.865h2.055c0-.486.399-.883.895-.883a.892.892 0 0 1 .912.883h1.072a1.942 1.942 0 0 1 1.896-1.924l-.036-9.46c-.008-2.277-1.904-4.121-4.243-4.112l-30.314.097c-2.339.008-4.235 1.87-4.217 4.147l.035 9.47c.957.034 1.737.793 1.825 1.782Z"/><path fill="#727FA4" d="M182.059 18.822H151v3.291h31.059v-3.291Z"/><path fill="#9CBADC" d="M166.768 23.93H151v3.293h15.768V23.93Z"/><path fill="url(#o)" d="m182.9 46.416-6.794 23.66-2.135 7.42-1.595 5.56c-.39 1.439-1.745 2.207-3.295 1.862L124.406 75c-2.232-.494-3.853-3-3.295-5.074l11.782-40.664c-.036.239-.169 1.562 2.037 2.162l44.675 9.92c2.223.493 3.853 3 3.295 5.073Z"/><path fill="#2C4078" d="M132.025 32.288h.319s.008.468.372 1.024l-.558.335a2.783 2.783 0 0 1-.328-.688l.195-.67ZM166.193 80.974a4.42 4.42 0 0 1-.904-.097l-1.178-.256.142-.618 1.178.256c.248.053.505.07.762.08.177 0 .345-.018.522-.045l.098.627a3.671 3.671 0 0 1-.62.044v.009Zm-4.651-.927-2.56-.573.15-.618 2.56.574-.141.617h-.009Zm7.716-.432-.487-.415c.336-.38.584-.82.717-1.306l.257-.874.629.168-.257.874a3.936 3.936 0 0 1-.85 1.553h-.009Zm-12.836-.715-2.561-.582.151-.618 2.56.582-.15.618Zm-5.121-1.156-2.56-.582.151-.618 2.56.582-.151.618Zm-5.111-1.165-2.56-.582.15-.61 2.56.583-.15.618v-.009Zm-5.112-1.173-2.56-.583.151-.609 2.56.583-.151.609Zm30.005-.662-.629-.168.717-2.444.629.167-.717 2.445Zm-35.116-.512-2.56-.591.15-.61 2.56.592-.15.609Zm-5.112-1.183c-.965-.22-1.833-.423-2.56-.59l.151-.61c.726.168 1.585.37 2.551.591l-.151.61h.009Zm-5.129-1.209c-.948-.264-1.736-.74-2.339-1.43l.497-.414c.522.591 1.213 1.006 2.028 1.235l-.177.61h-.009Zm46.783-1.985-.629-.168.718-2.444.628.167-.717 2.445Zm1.426-4.89-.629-.167.718-2.444.629.168-.718 2.444Zm1.426-4.888-.629-.168.718-2.444.629.168-.718 2.444Zm1.427-4.889-.629-.168.717-2.444.629.168-.717 2.444Zm1.426-4.889-.629-.167.461-1.571c.07-.265.115-.538.115-.82h.646c0 .334-.053.661-.141.987l-.461 1.58.009-.009Zm-.815-4.712a3.368 3.368 0 0 0-1.869-1.13l-.133-.026.124-.618.15.035a4.1 4.1 0 0 1 2.233 1.35l-.505.398v-.01Zm-4.589-1.739-2.56-.564.142-.618 2.56.565-.142.617Zm-5.12-1.13-2.56-.564.141-.618 2.561.565-.142.618Zm-5.129-1.12L160 41.042l.142-.617 2.56.555-.141.618Zm-5.13-1.12-2.56-.556.142-.618 2.56.556-.142.617Zm-5.129-1.113-2.56-.555.142-.618 2.56.556-.142.617Zm-5.129-1.111-2.56-.556.142-.618 2.56.556-.142.618Zm-5.129-1.112-2.56-.556.141-.618 2.561.556-.142.618Zm-5.129-1.121a58.914 58.914 0 0 1-1.391-.309 8.78 8.78 0 0 1-1.205-.37l.248-.583c.337.132.7.247 1.099.344.248.062.726.159 1.382.31l-.142.617.009-.009ZM122.218 68.16c-.195-.741-.195-1.297-.195-1.323h.647s0 .503.177 1.164l-.629.16Z"/><path fill="#142968" d="M159.761 68.655c.195.617.7 1.226 1.799 1.49 2.728.645 4.199 1.06 6.909 1.695 2.596.61 3.012 1.474 4.075 2.904.868 1.164 1.692 1.826 1.692 1.826l1.87-6.503c-6.591-1.35-16.292-3.292-16.292-3.292l-.044.168v1.712h-.009Z"/><path fill="#4F7CB3" d="M185.735 78.882c-.399 1.403-1.914 2.215-3.349 1.792-7.282-2.171-8.15-4.845-9.62-7.36-1.427-2.436-1.976-2.542-6.095-3.486-3.083-.776-4.908-1.235-5.944-1.5-.7-.177-1.108-.874-.913-1.544l3.437-11.958a1.288 1.288 0 0 1 1.56-.873c1.931.485 2.923.723 7.645 1.923 5.793 1.474 7.521 2.065 8.77 4.2.717 1.245 1.665 4.484 5.793 6.637 1.117.583 1.692 1.818 1.356 3l-2.631 9.17h-.009Z"/><path fill="url(#p)" d="M184.741 72.994c.589-1.813-.134-3.67-1.614-4.147-1.48-.477-3.158.606-3.747 2.42-.589 1.813.134 3.67 1.614 4.146 1.48.477 3.158-.606 3.747-2.419Z"/></g><defs><linearGradient id="b" x1="100.66" x2="351" y1="43.99" y2="43.99" gradientUnits="userSpaceOnUse"><stop stop-color="#FFDADA" stop-opacity=".5"/><stop offset=".46" stop-color="#FDB6B5"/><stop offset="1" stop-color="#FFDADA" stop-opacity="0"/></linearGradient><linearGradient id="c" x1="51.36" x2="351" y1="37.41" y2="37.41" gradientUnits="userSpaceOnUse"><stop stop-color="#FFDADA" stop-opacity=".5"/><stop offset="1" stop-color="#FDB6B5"/></linearGradient><linearGradient id="d" x1="237.36" x2="15.42" y1="56.67" y2="56.67" gradientUnits="userSpaceOnUse"><stop offset=".62" stop-color="#BDD8F4"/><stop offset=".75" stop-color="#D1E6F9"/><stop offset=".88" stop-color="#DEEEFD"/><stop offset="1" stop-color="#E3F2FF"/></linearGradient><linearGradient id="e" x1="25.75" x2="142.56" y1="58.53" y2="58.53" gradientUnits="userSpaceOnUse"><stop stop-color="#5F91CB" stop-opacity=".1"/><stop offset=".2" stop-color="#5F91CB" stop-opacity=".27"/><stop offset=".4" stop-color="#5F91CB" stop-opacity=".41"/><stop offset=".61" stop-color="#5F91CB" stop-opacity=".52"/><stop offset=".81" stop-color="#5F91CB" stop-opacity=".58"/><stop offset="1" stop-color="#5F91CB" stop-opacity=".6"/></linearGradient><linearGradient id="f" x1="0" x2="270.67" y1="86.67" y2="86.67" gradientUnits="userSpaceOnUse"><stop offset=".12" stop-color="#9DBCDF" stop-opacity=".3"/><stop offset=".42" stop-color="#5F91CB" stop-opacity=".7"/><stop offset=".82" stop-color="#7FA7D7"/><stop offset="1" stop-color="#BFD4EB"/></linearGradient><linearGradient id="g" x1="339.18" x2="41.45" y1="65.61" y2="65.61" gradientUnits="userSpaceOnUse"><stop offset=".12" stop-color="#9DBCDF"/><stop offset=".32" stop-color="#5F91CB"/><stop offset=".82" stop-color="#7FA7D7"/><stop offset="1" stop-color="#BFD4EB"/></linearGradient><linearGradient id="h" x1="281.76" x2="7.51" y1="80.98" y2="80.98" gradientUnits="userSpaceOnUse"><stop offset=".03" stop-color="#142968" stop-opacity="0"/><stop offset=".16" stop-color="#142968" stop-opacity=".17"/><stop offset=".3" stop-color="#142968" stop-opacity=".3"/><stop offset=".54" stop-color="#142968" stop-opacity=".13"/><stop offset=".78" stop-color="#142968" stop-opacity="0"/></linearGradient><linearGradient id="i" x1="172.624" x2="134.115" y1="38.633" y2="38.633" gradientUnits="userSpaceOnUse"><stop offset=".67" stop-color="#415385"/><stop offset="1" stop-color="#142968"/></linearGradient><linearGradient id="j" x1="217.335" x2="181.919" y1="23.832" y2="70.385" gradientUnits="userSpaceOnUse"><stop offset=".31" stop-color="#FCFCFD"/><stop offset=".48" stop-color="#DEEBF9"/></linearGradient><linearGradient id="k" x1="174.341" x2="204.415" y1="38.554" y2="48.556" gradientUnits="userSpaceOnUse"><stop stop-color="#142968"/><stop offset=".14" stop-color="#142968" stop-opacity=".96"/><stop offset=".27" stop-color="#142968" stop-opacity=".84"/><stop offset=".41" stop-color="#142968" stop-opacity=".65"/><stop offset=".55" stop-color="#142968" stop-opacity=".37"/><stop offset=".69" stop-color="#142968" stop-opacity=".02"/><stop offset=".7" stop-color="#142968" stop-opacity="0"/><stop offset=".91" stop-color="#142968" stop-opacity=".3"/></linearGradient><linearGradient id="l" x1="193.089" x2="174.197" y1="15.073" y2="70.369" gradientUnits="userSpaceOnUse"><stop offset=".31" stop-color="#FCFCFD"/><stop offset=".48" stop-color="#DEEBF9"/></linearGradient><linearGradient id="m" x1="156.935" x2="188.065" y1="42.507" y2="42.507" gradientUnits="userSpaceOnUse"><stop stop-color="#142968"/><stop offset=".14" stop-color="#142968" stop-opacity=".96"/><stop offset=".27" stop-color="#142968" stop-opacity=".84"/><stop offset=".41" stop-color="#142968" stop-opacity=".65"/><stop offset=".55" stop-color="#142968" stop-opacity=".37"/><stop offset=".69" stop-color="#142968" stop-opacity=".02"/><stop offset=".7" stop-color="#142968" stop-opacity="0"/><stop offset=".91" stop-color="#142968" stop-opacity=".3"/></linearGradient><linearGradient id="n" x1="166.467" x2="166.467" y1="15.697" y2="74.099" gradientUnits="userSpaceOnUse"><stop offset=".31" stop-color="#FCFCFD"/><stop offset=".48" stop-color="#DEEBF9"/></linearGradient><linearGradient id="o" x1="126.267" x2="177.022" y1="51.535" y2="64.13" gradientUnits="userSpaceOnUse"><stop stop-color="#DEECF9"/><stop offset=".08" stop-color="#7FA7D7"/><stop offset=".09" stop-color="#749CCD"/><stop offset=".12" stop-color="#608ABB"/><stop offset=".15" stop-color="#537CAF"/><stop offset=".2" stop-color="#4B75A8"/><stop offset=".28" stop-color="#4973A6"/></linearGradient><linearGradient id="p" x1="179.332" x2="184.757" y1="71.357" y2="72.907" gradientUnits="userSpaceOnUse"><stop offset=".23" stop-color="#BFD2E8"/><stop offset="1" stop-color="#9CBADC"/></linearGradient><clipPath id="a"><path fill="#fff" d="M0 0h351v100H0z"/></clipPath></defs></svg>