<svg id="Layer_1" data-name="Layer 1" xmlns="http://www.w3.org/2000/svg" xmlns:xlink="http://www.w3.org/1999/xlink" viewBox="0 0 299.02 271.99"><defs><style>.cls-1{fill:#bfd2e8;}.cls-2{fill:url(#linear-gradient);}.cls-3{fill:url(#linear-gradient-2);}.cls-4{opacity:0.44;fill:url(#linear-gradient-3);}.cls-5{fill:url(#linear-gradient-4);}.cls-6{fill:url(#linear-gradient-5);}.cls-7{fill:#242f65;}.cls-8{fill:#fa6b6b;}.cls-9{fill:url(#linear-gradient-6);}</style><linearGradient id="linear-gradient" x1="167.84" y1="56.96" x2="167.84" y2="137.01" gradientUnits="userSpaceOnUse"><stop offset="0" stop-color="#9dbbde"/><stop offset="0.28" stop-color="#9dbbde"/><stop offset="0.41" stop-color="#9dbbde"/></linearGradient><linearGradient id="linear-gradient-2" x1="159.35" y1="132.66" x2="159.35" y2="215.04" gradientUnits="userSpaceOnUse"><stop offset="0" stop-color="#425585"/><stop offset="0.18" stop-color="#7ea6d6"/><stop offset="0.58" stop-color="#bfd3eb"/><stop offset="1" stop-color="#bfd3eb" stop-opacity="0"/></linearGradient><linearGradient id="linear-gradient-3" x1="114.11" y1="60.87" x2="127.41" y2="123.46" gradientTransform="matrix(0.99, -0.11, 0.11, 0.99, -36.7, 30.69)" gradientUnits="userSpaceOnUse"><stop offset="0" stop-color="#deebf9"/><stop offset="0.02" stop-color="#ddebf9"/><stop offset="0.52" stop-color="#d1e4f6"/><stop offset="1" stop-color="#cde2f5"/></linearGradient><linearGradient id="linear-gradient-4" x1="106.39" y1="149.32" x2="210.52" y2="149.32" gradientUnits="userSpaceOnUse"><stop offset="0.48" stop-color="#5e8fca"/><stop offset="0.51" stop-color="#5e8fca"/><stop offset="0.68" stop-color="#5e8fca"/></linearGradient><linearGradient id="linear-gradient-5" x1="93.22" y1="128.97" x2="230.44" y2="128.97" gradientTransform="matrix(0.99, -0.11, 0.11, 0.99, -36.7, 30.69)" gradientUnits="userSpaceOnUse"><stop offset="0" stop-color="#9ebce0"/><stop offset="0.06" stop-color="#aec7e5"/><stop offset="0.19" stop-color="#cadaee"/><stop offset="0.33" stop-color="#e0e9f4"/><stop offset="0.48" stop-color="#f0f4f9"/><stop offset="0.66" stop-color="#f9fafc"/><stop offset="0.9" stop-color="#fcfcfd"/></linearGradient><linearGradient id="linear-gradient-6" x1="99.25" y1="164.44" x2="200.83" y2="164.44" gradientTransform="translate(24.95 -28.98) rotate(4.44)" gradientUnits="userSpaceOnUse"><stop offset="0" stop-color="#9cbadc"/><stop offset="0.3" stop-color="#85aad5"/><stop offset="0.74" stop-color="#6996cb"/><stop offset="1" stop-color="#5e8ec8"/></linearGradient></defs><title>Artboard 1 copy 5</title><path class="cls-1" d="M262,137c-1.48-7.3-7.63-9-14.08-8.45-1.51.12-2.55.9-4-.11-1.73-1.2-2.26-4.44-4.15-5.55-2.26-1.33-5.41-.33-7.8-.54-5.67-30.11-19.22-22-26.75-16.72-3.81-2.26-11.52-10-16.42-13.36-4.56-3.12-6.68-4.73-11.16-2.43-.75-3.78-.33-7.1-1.87-10.44-1.78-3.85-3.54-1-5.66-3.76-5.51-7.21-2.59-11.32-8.85-17-4-3.62-10.19-1.2-12,4.25-1.42,4.21.09,7.37-3.07,8.6-2.65,1-4.81,9.32-7.51,10.56s-5.9-3.35-6.36,3c-2.81,1.2-4.45,4.51-5,8.47-.76,5.06,1.33,6.39,2.35,10.84,1.34,5.82-.9,4.75-3.3,7.07s-2.74,6-3.43,10c-6.21-2.8-11.35,8-11.64,13.26-2.78-2-4-3.19-8.41-1.42A11.8,11.8,0,0,0,98.16,137Z"/><path class="cls-2" d="M104.46,137H107l127.9-.19c.77-2.15-7.74-3.67-15-3.2-10.82-14-12.47-14.8-17-14.07.08-6.51-6.17-5.73-9-8.64-3.12-3.23-4.37-13.12-7-13.45.67,8.4-7.48,17.44-8.82,7.56-3.08,5.26-8.87-1.3-4.76-6.08-6.47-.32-5.56,10.29-9.83,11.74-7.1,2.42-2.32-15.63-8.84-16.73-.57-5.72,7-7.42,4.35-12-2.27-3.9-8.44-7.32-7.62-13.15.88-6.22,3.4-6.86,6-11.76a7.16,7.16,0,0,0-4.11,1,11.37,11.37,0,0,0-3.87,4.55c-.06.14-.12.28-.17.42-1.42,4.21.09,7.37-3.07,8.6-2.65,1-3,6.85-5.72,8.09s-7.69-.88-8.15,5.5c-2.81,1.2-4.45,4.51-5,8.47-.76,5.06,1.33,6.39,2.35,10.84,1.34,5.82-.9,4.75-3.3,7.07s-2.74,6-3.43,10c-6-2.71-11,7.32-11.6,12.75l0,0-.09.56-.33-.18,0,0c-2.58-1.85-3.91-2.92-8.11-1.21a9.09,9.09,0,0,0-1.17.58l-.5.33-.42.3a20.92,20.92,0,0,1,2.57,2.51Z"/><path class="cls-3" d="M223.68,167.27c-30.42-22.33,41.12-30.62,38.94-30.75-4.77-.27-146.66-3.86-146.66-3.86l-4.15,4.42s-50.12,7.4-55.54,21.7c-.63,1.67.15,3.26,1,4.78,11.1,19.51,93.33,12.82,112.76,50.25a5.63,5.63,0,0,1,0,.59l.27-.14.4.78s0-.36,0-1C188.07,204.84,237.74,177.59,223.68,167.27Z"/><path class="cls-4" d="M136.28,64.71S11.62,90,40.76,119.93c19.11,19.59,52.58,23.17,52.58,23.17l32.19-18,5.77-12.13S2.72,111.07,136.28,64.71Z"/><polygon class="cls-5" points="112.53 165.68 106.39 123.23 210.52 175.41 112.53 165.68"/><polygon class="cls-6" points="137.3 100.36 113.12 117.73 112.94 126.02 106.49 122.68 69.74 149.31 210.52 175.41 137.3 100.36"/><polygon class="cls-7" points="129.78 145.42 132.99 146.99 136.35 144.36 133.13 142.79 129.78 145.42"/><path class="cls-7" d="M118.74,135.84l-11.45,9.25,11.31,5.54,11.65-9.24Zm-7,8.52,7-5.61,7,3.36-7,5.61Z"/><polygon class="cls-7" points="118.74 141.13 115.46 143.76 118.7 145.34 122 142.71 118.74 141.13"/><path class="cls-7" d="M138.78,149.86,133.09,147l-6.15,4.85-3.28-1.63L121.43,152l11,5.52,11.9-9.23-2.21-1.09ZM133,150l3.1,1.49-3.71,2.65-3-1.4Z"/><polygon class="cls-7" points="138.31 138.75 136.05 140.51 147.34 146.05 149.73 144.24 138.31 138.75"/><polygon class="cls-7" points="135.41 137.32 126.99 132.95 126.37 132.65 126.38 132.64 124.12 131.52 121.78 133.38 133.16 139.06 135.41 137.32"/><polygon class="cls-8" points="143.58 106.79 137.3 100.36 113.12 117.73 114.62 126.89 106.5 122.68 69.74 149.31 79.69 151.15 80.34 150.76 143.58 106.79"/><polygon class="cls-9" points="113.12 117.73 210.52 175.41 114.49 126.77 113.12 117.73"/><polygon class="cls-7" points="136.84 121.6 161.44 136.17 163.72 134.43 139.35 119.84 136.84 121.6"/><polygon class="cls-8" points="132.74 124.9 149.96 134.98 152.23 133.24 135.25 123.14 132.74 124.9"/></svg>